<?xml version="1.0" standalone="no"?>
<!DOCTYPE svg PUBLIC "-//W3C//DTD SVG 20010904//EN"
 "http://www.w3.org/TR/2001/REC-SVG-20010904/DTD/svg10.dtd">
<svg version="1.0" xmlns="http://www.w3.org/2000/svg"
 width="512.000000pt" height="512.000000pt" viewBox="0 0 512.000000 512.000000"
 preserveAspectRatio="xMidYMid meet">
<metadata>
Created by potrace 1.14, written by Peter Selinger 2001-2017
</metadata>
<g transform="translate(0.000000,512.000000) scale(0.100000,-0.100000)"
fill="#000000" stroke="none">
<path d="M2958 4325 c-25 -14 -45 -60 -76 -175 -5 -19 -40 -138 -77 -265 -36
-126 -100 -345 -140 -485 -41 -140 -86 -295 -100 -345 -15 -49 -28 -97 -30
-105 -2 -8 -24 -85 -48 -170 -25 -85 -75 -258 -112 -385 -36 -126 -70 -243
-75 -260 -6 -16 -41 -138 -79 -270 -74 -259 -139 -484 -281 -972 -49 -172 -90
-325 -90 -341 0 -43 25 -70 83 -87 176 -51 181 -52 209 -43 38 13 55 40 79
123 11 39 28 99 39 135 11 36 49 169 86 295 87 306 264 917 358 1243 42 144
110 380 152 525 41 144 99 345 129 447 29 102 92 320 140 485 48 165 100 344
116 399 16 54 29 111 29 127 0 49 -36 77 -135 105 -122 33 -146 36 -177 19z"/>
<path d="M1329 3790 c-9 -5 -311 -305 -672 -666 l-657 -657 0 -91 0 -91 658
-656 c361 -362 667 -662 680 -669 42 -21 77 -3 169 91 94 96 108 119 98 159
-4 15 -225 244 -577 596 l-570 572 570 570 c594 594 599 600 571 654 -6 13
-51 62 -100 111 -75 75 -92 87 -121 87 -18 0 -40 -5 -49 -10z"/>
<path d="M3616 3708 c-103 -103 -121 -138 -91 -184 9 -14 269 -278 577 -586
l561 -560 -566 -567 c-311 -311 -570 -575 -575 -587 -26 -50 -9 -78 121 -203
69 -66 86 -76 124 -67 19 5 233 212 691 669 l662 662 0 91 0 91 -652 652
c-358 359 -661 659 -672 667 -11 8 -35 14 -54 14 -28 0 -46 -13 -126 -92z"/>
</g>
</svg>
